<?xml version="1.0" standalone="no"?>
<!DOCTYPE svg PUBLIC "-//W3C//DTD SVG 20010904//EN"
 "http://www.w3.org/TR/2001/REC-SVG-20010904/DTD/svg10.dtd">
<svg version="1.0" xmlns="http://www.w3.org/2000/svg"
 width="544.000000pt" height="544.000000pt" viewBox="0 0 544.000000 544.000000"
 preserveAspectRatio="xMidYMid meet">
<metadata>
Created by potrace 1.14, written by Peter Selinger 2001-2017
</metadata>
<g transform="translate(0.000000,544.000000) scale(0.100000,-0.100000)"
fill="#000000" stroke="none">
<path d="M1001 4592 c-104 -117 -210 -305 -227 -397 -3 -22 -10 -47 -14 -55
-20 -38 -31 -249 -18 -345 15 -109 17 -123 42 -197 67 -198 110 -253 530 -675
203 -205 373 -373 377 -373 9 0 699 690 699 700 0 3 -19 25 -42 47 -24 22
-329 329 -678 682 -349 352 -637 641 -640 641 -3 0 -16 -13 -29 -28z"/>
<path d="M3883 4605 c-35 -7 -89 -20 -120 -30 -32 -10 -60 -18 -63 -18 -7 0
-184 -89 -190 -96 -3 -3 -32 -24 -65 -46 -87 -58 -274 -247 -335 -339 -51 -77
-104 -181 -126 -251 -7 -20 -34 -131 -40 -160 -10 -51 -12 -224 -2 -273 12
-66 14 -75 21 -92 3 -8 10 -29 15 -46 l10 -31 -1072 -1071 c-589 -589 -1096
-1096 -1126 -1127 l-55 -55 150 -150 c82 -83 153 -150 158 -150 4 0 121 113
260 251 138 138 512 509 830 825 l579 576 25 -24 c26 -23 604 -597 1277 -1266
200 -199 368 -362 373 -362 4 0 76 68 158 150 l150 150 -833 833 c-457 457
-832 835 -832 840 0 4 59 66 131 139 l132 131 66 -18 c36 -10 88 -22 116 -26
51 -9 221 -5 265 5 14 4 41 9 60 12 87 14 224 73 325 138 100 65 163 120 279
246 174 188 288 463 286 690 -1 140 -15 209 -65 311 -73 150 -208 264 -377
321 -76 25 -268 32 -365 13z"/>
</g>
</svg>
